<!DOCTYPE svg PUBLIC "-//W3C//DTD SVG 1.1//EN" "http://www.w3.org/Graphics/SVG/1.1/DTD/svg11.dtd">
<!-- Uploaded to: SVG Repo, www.svgrepo.com, Transformed by: SVG Repo Mixer Tools -->
<svg width="64px" height="64px" viewBox="0 0 24 24" fill="none" xmlns="http://www.w3.org/2000/svg" stroke="#000000">
<g id="SVGRepo_bgCarrier" stroke-width="0"/>
<g id="SVGRepo_tracerCarrier" stroke-linecap="round" stroke-linejoin="round"/>
<g id="SVGRepo_iconCarrier"> <path d="M10 14H14M6 14H7M17 12H18M6 12H7M9 12H10M11.5 12H12.5M14 12H15M17 14H18M17 10H18M14 10H15M11.5 10H12.5M9 10H10M6 10H7M5 8H19C19.5523 8 20 8.44772 20 9V15C20 15.5523 19.5523 16 19 16H5C4.44772 16 4 15.5523 4 15V9C4 8.44772 4.44772 8 5 8Z" stroke="#000" stroke-linecap="round" stroke-linejoin="round"/> </g>
</svg>